<?xml version="1.0" standalone="no"?>
<!DOCTYPE svg PUBLIC "-//W3C//DTD SVG 20010904//EN"
 "http://www.w3.org/TR/2001/REC-SVG-20010904/DTD/svg10.dtd">
<svg version="1.0" xmlns="http://www.w3.org/2000/svg"
 width="350.000000pt" height="350.000000pt" viewBox="0 0 350.000000 350.000000"
 preserveAspectRatio="xMidYMid meet">
<metadata>
Created by potrace 1.14, written by Peter Selinger 2001-2017
</metadata>
<g transform="translate(0.000000,350.000000) scale(0.100000,-0.100000)"
fill="#000000" stroke="none">
<path d="M1600 3493 c-141 -19 -188 -27 -271 -48 -171 -44 -354 -125 -509
-228 -405 -268 -683 -716 -737 -1187 -12 -102 -8 -397 6 -480 62 -360 220
-666 480 -929 36 -36 64 -69 63 -74 -1 -4 4 -6 10 -5 7 2 12 -3 10 -10 -1 -6
1 -11 5 -11 24 4 35 -3 29 -17 -4 -11 -2 -15 8 -11 14 6 36 -10 36 -27 0 -6
-5 -5 -12 2 -7 7 -17 12 -23 12 -5 0 -2 -5 8 -11 9 -6 15 -14 12 -20 -11 -16
7 -10 21 8 13 16 14 15 11 -10 -3 -26 -23 -50 -37 -43 -3 2 -13 -5 -22 -16
-10 -10 -14 -18 -9 -18 6 0 12 4 16 9 7 13 46 9 42 -4 -2 -5 -11 -9 -21 -7 -9
2 -16 -2 -16 -8 0 -5 3 -9 8 -9 16 3 32 -1 31 -8 -3 -21 2 -33 12 -27 8 4 7 9
-2 15 -8 5 -12 9 -9 10 3 0 13 2 23 4 21 4 22 -4 1 -34 -13 -18 -14 -25 -4
-34 10 -9 12 -8 7 5 -3 10 -2 20 3 23 10 6 12 0 14 -40 1 -11 6 -20 11 -20 6
0 16 -4 23 -8 6 -5 12 -4 12 0 0 5 9 14 21 21 16 10 20 10 18 0 -3 -28 2 -40
15 -35 8 3 24 -4 37 -16 18 -16 21 -17 16 -4 -4 10 0 20 11 26 16 9 16 10 0
16 -10 4 -15 12 -11 19 4 6 -2 4 -12 -4 -10 -8 -16 -10 -12 -3 5 8 1 11 -13 8
-11 -2 -19 -1 -16 3 2 4 -5 19 -16 32 -11 14 -16 19 -12 11 5 -9 3 -12 -5 -7
-6 4 -9 12 -6 17 4 5 2 9 -3 9 -5 0 -9 7 -9 15 0 8 5 11 10 8 6 -4 7 -1 2 7
-5 8 -4 11 3 6 6 -4 8 -14 5 -23 -5 -12 -3 -14 8 -7 24 15 49 15 49 -1 0 -8 5
-15 11 -15 6 0 8 7 5 17 -6 15 -5 15 13 -1 11 -10 23 -16 28 -13 4 3 7 -9 7
-26 -2 -47 5 -51 32 -20 14 15 24 21 22 13 -2 -9 3 -14 11 -12 12 3 12 0 2
-12 -7 -8 -8 -17 -3 -20 6 -3 12 1 16 9 6 16 36 21 36 5 0 -5 -8 -7 -17 -4
-17 5 -17 5 -1 -9 10 -8 18 -19 18 -26 0 -6 5 -11 11 -11 5 0 7 5 3 12 -4 6
-3 8 4 4 6 -3 15 2 21 11 6 10 11 13 11 8 0 -6 -5 -16 -12 -23 -19 -19 3 -14
26 5 20 17 20 17 7 1 -11 -15 -11 -18 2 -18 8 0 18 6 21 13 3 6 3 1 0 -13 -7
-24 -6 -25 14 -7 14 13 22 15 27 7 4 -6 14 -9 22 -6 8 3 11 1 8 -4 -3 -6 -13
-10 -22 -10 -9 0 -13 -3 -9 -7 12 -13 30 -10 43 7 10 13 11 11 6 -7 -3 -13 -1
-23 5 -23 6 0 12 10 14 21 3 18 5 17 15 -10 10 -27 10 -31 -2 -21 -10 8 -15 8
-20 -1 -6 -8 -9 -8 -15 1 -4 7 -13 9 -19 6 -16 -11 -13 -29 4 -22 8 3 19 -2
24 -12 7 -11 11 -12 11 -4 0 7 4 11 9 8 10 -6 28 13 26 29 0 6 -4 17 -9 25 -6
9 -1 8 12 -4 12 -10 19 -23 15 -29 -4 -6 -1 -7 6 -3 7 5 10 15 7 25 -5 14 -4
14 7 -1 11 -14 16 -15 27 -5 10 9 11 9 6 0 -5 -9 4 -11 30 -9 23 1 38 -2 41
-11 3 -7 9 -13 15 -13 5 0 7 4 4 8 -6 11 40 9 50 -1 4 -4 13 -2 21 4 12 11 17
3 15 -22 0 -3 8 -11 20 -18 11 -7 17 -8 13 -2 -3 6 -2 11 3 11 16 0 22 -13 11
-27 -9 -9 -8 -13 0 -13 6 0 11 6 11 13 0 8 4 7 10 -3 5 -8 10 -10 10 -5 0 6
-5 16 -12 23 -8 8 -8 12 -1 12 6 0 16 -7 23 -15 7 -9 15 -13 18 -11 2 3 14 1
26 -5 20 -10 20 -10 2 5 -11 9 -18 16 -15 17 2 0 13 2 25 4 18 4 21 0 19 -30
-1 -19 3 -31 7 -28 5 3 7 11 4 18 -2 7 2 16 10 19 8 3 14 1 14 -4 0 -6 5 -10
11 -10 8 0 8 4 -1 15 -6 8 -9 18 -6 23 3 5 -1 9 -8 9 -8 0 -12 -6 -9 -14 3 -7
1 -13 -5 -13 -6 0 -9 8 -8 17 3 18 66 29 66 12 0 -6 -4 -8 -9 -4 -17 10 -20
-10 -4 -30 13 -17 15 -17 10 -2 -4 11 -1 20 8 23 8 4 13 10 10 14 -3 5 0 12 6
16 8 4 9 3 5 -4 -8 -13 6 -16 18 -5 11 11 76 11 76 0 0 -5 -7 -6 -16 -3 -8 3
-13 2 -10 -2 2 -4 -4 -9 -15 -9 -10 -1 -19 3 -19 8 0 6 -5 7 -11 3 -8 -5 -7
-10 4 -16 10 -5 14 -16 11 -26 -5 -14 -4 -15 5 -2 10 14 16 7 12 -13 -1 -5 4
-5 10 -2 8 5 8 10 0 18 -18 18 -13 31 6 16 11 -10 14 -10 9 -1 -10 16 2 15 19
-2 8 -7 11 -17 7 -21 -4 -5 -1 -5 6 -1 11 6 10 12 -4 27 -11 12 -13 19 -5 19
7 0 9 4 6 10 -4 6 1 7 11 3 11 -4 15 -3 11 4 -8 12 18 12 29 0 12 -12 26 -8
21 6 -6 16 22 19 41 4 8 -6 12 -6 12 2 0 8 8 10 21 6 14 -5 19 -3 15 3 -4 7 3
9 20 6 17 -3 23 -1 19 7 -5 8 -2 8 11 1 38 -21 59 -41 51 -48 -4 -4 -14 1 -23
12 -8 10 -12 13 -8 5 5 -9 3 -12 -5 -7 -6 4 -9 12 -6 17 4 5 1 9 -4 9 -6 0
-11 -5 -11 -11 0 -5 -4 -8 -9 -5 -5 4 -12 0 -14 -6 -4 -10 -6 -9 -6 1 -1 11
-4 11 -16 1 -12 -10 -15 -10 -15 0 0 9 -3 10 -13 1 -8 -6 -16 -10 -18 -8 -3 1
3 -5 12 -13 9 -9 19 -22 22 -30 4 -9 6 -5 4 9 -1 13 4 26 12 29 9 3 11 0 6 -8
-5 -9 0 -7 15 3 20 14 25 14 46 1 15 -10 28 -13 39 -7 14 8 12 13 -11 36 -15
15 -24 30 -21 34 4 3 7 1 7 -5 0 -7 7 -12 16 -12 14 0 14 3 4 15 -11 13 -10
14 4 9 10 -4 14 -13 11 -24 -3 -9 2 -23 11 -30 14 -12 13 -16 -8 -33 l-23 -19
25 14 c22 13 26 13 40 -1 22 -24 2 7 -25 38 l-20 23 23 -7 c16 -5 22 -3 20 7
-2 7 5 12 15 12 17 -2 20 4 19 41 -1 17 0 17 4 3 3 -10 10 -18 16 -18 5 0 7 7
4 16 -3 8 -2 13 3 9 5 -3 11 -2 14 2 2 5 2 3 1 -4 -2 -6 4 -17 12 -23 16 -14
19 -30 4 -30 -5 0 -9 5 -7 11 1 6 -4 14 -11 16 -11 4 -12 1 -3 -16 7 -12 9
-27 5 -34 -4 -6 2 -3 14 7 22 19 32 10 11 -11 -7 -7 -6 -12 5 -16 11 -4 13 -1
9 11 -6 15 -5 16 13 2 18 -14 18 -14 5 3 -8 9 -11 21 -7 24 4 4 12 1 17 -7 8
-12 9 -12 7 4 -2 10 3 21 11 24 10 3 11 0 5 -9 -6 -11 -3 -10 11 1 17 14 17
13 10 -9 -5 -16 -4 -21 4 -17 6 4 11 17 11 28 0 20 1 20 18 5 10 -10 23 -17
28 -17 5 0 1 5 -9 11 -17 10 -15 29 4 29 6 0 7 -6 3 -12 -5 -8 0 -7 11 2 16
14 17 13 11 -8 -5 -15 -3 -22 5 -22 7 0 9 3 6 7 -4 3 2 12 13 20 15 11 25 11
41 3 17 -10 21 -8 26 9 7 26 20 27 26 4 4 -16 5 -16 6 -1 0 9 -6 23 -14 32
-17 17 -20 30 -5 21 6 -3 10 -1 10 6 0 7 3 9 8 5 7 -7 8 -11 11 -37 0 -5 6 -7
11 -4 9 6 14 -8 11 -28 -1 -5 3 -6 9 -2 11 7 -4 45 -19 45 -4 0 -8 7 -8 15 0
20 14 19 25 -1 11 -20 34 -9 30 13 -2 9 3 18 10 20 8 3 10 -2 6 -14 -5 -17 -5
-17 6 0 8 13 15 15 30 7 13 -7 21 -7 25 0 3 5 3 10 -2 10 -4 0 0 5 9 11 20 11
13 39 -11 39 -13 0 -13 2 -2 9 10 6 10 10 1 13 -9 3 -9 10 1 31 7 15 16 27 21
27 4 0 8 5 8 10 0 6 -10 4 -23 -5 -21 -13 -25 -13 -47 2 -13 9 -20 11 -16 5 4
-7 3 -12 -2 -12 -18 0 -21 14 -5 25 14 11 19 10 28 -2 14 -19 46 -7 37 15 -5
15 -4 15 11 3 9 -7 17 -9 17 -3 0 5 -7 13 -16 16 -11 4 -18 -1 -21 -14 -6 -23
-23 -27 -23 -6 0 18 68 78 81 70 5 -3 8 -1 7 4 -2 6 23 35 54 66 337 331 515
748 516 1211 1 565 -278 1088 -748 1400 -200 133 -408 216 -655 261 -73 14
-366 26 -425 17z m-819 -3057 c5 3 12 -2 15 -10 3 -9 10 -13 15 -10 5 3 9 2 8
-3 -3 -20 2 -27 11 -13 6 10 10 11 10 3 0 -7 7 -13 15 -13 8 0 15 -4 15 -10 0
-5 8 -10 18 -11 9 0 12 -3 5 -5 -7 -3 -21 -1 -31 5 -43 23 -51 -39 -10 -74 13
-11 21 -19 19 -18 -2 2 -10 -2 -18 -8 -16 -14 -63 -20 -63 -9 0 5 6 11 13 13
9 4 9 8 -2 15 -8 6 -14 27 -14 51 0 22 -4 38 -9 35 -4 -3 -8 0 -8 5 0 6 4 11
8 11 4 0 8 10 9 23 0 12 -1 16 -4 9 -4 -10 -8 -10 -19 -1 -8 6 -11 16 -7 22 5
8 8 7 11 -1 2 -7 8 -10 13 -6z m1949 -17 c0 -8 4 -8 13 -1 8 7 18 7 27 2 8 -5
18 -6 23 -3 5 3 4 -4 -2 -16 -7 -12 -9 -26 -6 -31 8 -12 -5 -13 -24 -1 -9 6
-10 11 -2 15 6 4 11 13 11 19 0 7 -4 6 -10 -3 -8 -12 -10 -12 -10 -1 0 8 -3
11 -6 8 -4 -3 -16 -2 -27 4 -15 9 -18 8 -12 -2 5 -8 4 -10 -3 -5 -7 4 -12 2
-12 -3 0 -6 5 -11 11 -11 5 0 7 -5 3 -11 -5 -8 -9 -8 -14 1 -5 9 -9 9 -14 1
-4 -6 -2 -11 5 -11 7 0 9 -3 5 -7 -4 -5 -13 0 -21 10 -12 16 -13 16 -19 1 -4
-9 -4 -19 -1 -22 3 -3 5 0 5 7 0 7 5 9 11 5 8 -5 8 -9 -1 -14 -9 -5 -9 -9 -1
-14 6 -4 11 -2 11 3 0 6 4 11 8 11 5 0 9 -7 9 -15 0 -8 -5 -11 -10 -8 -6 3 -7
1 -4 -4 4 -6 19 -10 34 -10 16 0 22 2 15 4 -6 3 -9 9 -6 15 3 5 15 2 27 -9 13
-12 17 -13 12 -3 -5 8 -11 24 -12 35 -2 13 4 9 17 -14 12 -18 24 -30 28 -27 3
4 0 11 -8 16 -23 14 -4 23 21 10 20 -11 20 -13 5 -22 -9 -5 -13 -14 -10 -20 4
-7 2 -8 -4 -4 -39 24 -86 10 -75 -22 6 -16 5 -16 -13 0 -29 25 -91 11 -80 -18
3 -8 2 -23 -2 -34 -6 -17 -10 -18 -22 -8 -9 7 -13 12 -11 11 2 -2 10 2 17 8
14 11 8 42 -7 33 -5 -3 -9 -2 -9 3 -1 17 -29 45 -40 38 -7 -4 -2 -14 12 -26
13 -12 16 -17 8 -13 -8 4 -12 4 -8 -1 4 -4 3 -17 -3 -28 -8 -15 -8 -18 1 -12
8 5 11 3 9 -4 -7 -19 -24 -12 -22 9 1 10 -4 24 -12 30 -10 8 -15 9 -15 2 0 -6
4 -13 10 -17 5 -3 7 -12 3 -21 -5 -12 -8 -12 -20 3 -8 10 -12 13 -9 7 8 -15
-14 -32 -36 -29 -10 2 -18 -2 -18 -8 0 -18 -20 7 -25 31 -2 12 -7 27 -10 32
-3 6 -1 10 4 10 6 0 11 -7 11 -15 0 -8 5 -15 11 -15 6 0 9 9 6 20 -3 11 -1 17
4 14 6 -3 9 -13 8 -22 -3 -30 1 -43 10 -38 8 6 7 48 -2 63 -3 5 4 9 16 10 12
0 16 -1 10 -4 -7 -3 -13 -9 -13 -14 0 -6 5 -7 12 -3 7 4 8 3 4 -4 -4 -7 -2
-12 3 -12 6 0 11 7 11 16 0 10 6 14 15 10 17 -6 18 -4 9 18 -3 9 -10 16 -16
16 -5 0 -6 -5 -2 -12 4 -7 3 -8 -5 -4 -22 14 -1 25 40 21 34 -3 39 -2 29 10
-7 8 -17 12 -23 8 -6 -4 -7 -1 -3 6 6 9 12 9 25 -3 26 -24 37 -19 15 6 -10 12
-14 18 -8 15 7 -4 17 0 24 8 7 8 16 13 20 10 4 -3 10 2 14 10 3 9 12 12 23 8
10 -3 15 -3 11 2 -9 9 20 34 40 35 6 0 12 -5 12 -11z m-1964 -38 c1 -16 -4
-28 -11 -28 -10 0 -14 37 -6 66 3 13 16 -15 17 -38z m1973 10 c10 -6 10 -10 1
-16 -6 -4 -9 -14 -6 -22 3 -8 2 -11 -3 -8 -5 3 -12 1 -16 -5 -10 -16 -23 -12
-21 6 1 9 10 22 20 29 13 10 14 14 4 18 -7 3 -8 6 -3 6 6 0 16 -3 24 -8z
m-1742 -103 c-3 -8 -6 -5 -6 6 -1 11 2 17 5 13 3 -3 4 -12 1 -19z m-74 -44 c4
-1 10 -2 14 -3 4 0 1 -7 -6 -13 -10 -11 -15 -9 -27 6 -8 11 -14 14 -14 7 0 -7
-5 -9 -11 -5 -8 4 -7 9 2 15 7 4 18 5 24 1 5 -4 13 -7 18 -8z m1483 -2 c1 -7
0 -8 -3 -2 -2 5 -9 10 -14 10 -6 0 -7 -5 -3 -12 4 -7 3 -8 -5 -4 -14 9 -4 29
12 23 6 -2 12 -9 13 -15z m199 0 c-9 -9 -35 -11 -35 -3 0 14 12 20 26 14 8 -3
12 -8 9 -11z m-212 -26 c15 6 19 0 16 -23 -1 -5 -5 -7 -10 -5 -5 1 -9 -4 -9
-10 -1 -7 -7 -2 -15 12 -15 26 -21 54 -7 32 5 -7 16 -10 25 -6z m-103 -14 c0
-4 -12 -13 -28 -19 l-27 -13 22 19 c12 10 19 22 15 26 -4 5 -1 5 6 1 6 -4 12
-10 12 -14z m-986 -60 c3 -5 -1 -9 -9 -9 -8 0 -12 4 -9 9 3 4 7 8 9 8 2 0 6
-4 9 -8z m356 -13 c34 -1 43 -8 30 -24 -11 -14 -15 -14 -31 1 -10 9 -23 13
-30 8 -8 -4 -10 -3 -5 4 9 15 -6 16 -20 2 -7 -7 -11 -6 -11 4 0 9 8 13 26 10
14 -3 33 -5 41 -5z m70 -3 c0 -3 -4 -8 -10 -11 -5 -3 -10 -1 -10 4 0 6 5 11
10 11 6 0 10 -2 10 -4z"/>
<path d="M794 398 c1 -7 5 -18 9 -25 4 -6 1 -14 -5 -16 -10 -4 -9 -6 1 -6 10
-1 11 -4 2 -15 -8 -10 -9 -16 -1 -21 11 -7 12 -5 14 23 0 11 8 27 16 38 8 10
10 16 5 11 -4 -4 -16 0 -26 9 -13 12 -17 12 -15 2z"/>
<path d="M819 308 c-3 -11 -5 -48 -3 -48 11 0 23 40 14 45 -5 3 -10 5 -11 3z"/>
<path d="M2610 356 c-12 -16 3 -32 20 -21 6 3 7 -1 4 -10 -4 -9 -9 -14 -12
-11 -2 3 -14 0 -25 -6 -20 -10 -20 -11 -3 -24 15 -11 22 -11 40 1 11 8 24 14
29 15 13 0 9 10 -17 40 -20 24 -26 27 -36 16z m51 -43 c7 -10 9 -15 4 -10 -4
4 -18 1 -30 -7 -14 -9 -27 -11 -36 -5 -10 6 -11 9 -1 10 6 1 17 3 22 4 6 1 15
3 21 4 5 0 7 6 4 11 -10 17 2 11 16 -7z"/>
<path d="M2695 300 c-3 -5 -1 -10 4 -10 6 0 11 5 11 10 0 6 -2 10 -4 10 -3 0
-8 -4 -11 -10z"/>
<path d="M2545 271 c-3 -5 -2 -12 3 -15 5 -3 9 1 9 9 0 17 -3 19 -12 6z"/>
<path d="M2483 231 c0 -11 5 -18 9 -15 4 3 5 11 1 19 -7 21 -12 19 -10 -4z"/>
<path d="M2435 220 c3 -5 8 -10 11 -10 2 0 4 5 4 10 0 6 -5 10 -11 10 -5 0 -7
-4 -4 -10z"/>
<path d="M2386 202 c-3 -5 1 -9 9 -9 8 0 12 4 9 9 -3 4 -7 8 -9 8 -2 0 -6 -4
-9 -8z"/>
<path d="M1666 108 c3 -5 10 -6 15 -3 13 9 11 12 -6 12 -8 0 -12 -4 -9 -9z"/>
<path d="M586 542 c-2 -4 4 -8 14 -8 10 0 16 4 14 8 -3 4 -9 8 -14 8 -5 0 -11
-4 -14 -8z"/>
<path d="M2830 511 c0 -7 -5 -9 -12 -5 -7 5 -8 3 -3 -5 5 -9 10 -10 18 -2 6 6
8 14 4 18 -4 3 -7 1 -7 -6z"/>
<path d="M636 498 c3 -4 11 -5 19 -1 21 7 19 12 -4 10 -11 0 -18 -5 -15 -9z"/>
<path d="M2936 493 c-6 -14 -5 -15 5 -6 7 7 10 15 7 18 -3 3 -9 -2 -12 -12z"/>
<path d="M594 488 c3 -21 16 -38 29 -38 7 0 4 5 -6 11 -9 6 -15 14 -12 19 3 5
1 11 -4 14 -5 4 -8 0 -7 -6z"/>
<path d="M654 479 c-4 -7 -3 -9 4 -5 6 4 11 -1 11 -11 -1 -10 2 -28 6 -40 5
-15 3 -23 -4 -23 -7 0 -9 5 -6 10 3 6 -1 13 -9 16 -9 3 -13 10 -10 15 3 5 -2
6 -12 2 -14 -5 -14 -8 5 -20 11 -7 21 -16 21 -20 0 -5 6 -8 13 -8 7 0 11 10 9
25 -1 14 -3 33 -3 42 0 22 -15 32 -25 17z"/>
<path d="M515 459 c-3 -4 2 -6 10 -5 21 3 28 13 10 13 -9 0 -18 -4 -20 -8z"/>
<path d="M2870 450 c6 -11 15 -20 20 -20 6 0 2 9 -7 20 -10 11 -19 20 -21 20
-1 0 2 -9 8 -20z"/>
<path d="M2930 461 c0 -6 4 -13 10 -16 6 -3 7 1 4 9 -7 18 -14 21 -14 7z"/>
<path d="M3010 439 c0 -5 5 -7 10 -4 6 3 10 8 10 11 0 2 -4 4 -10 4 -5 0 -10
-5 -10 -11z"/>
<path d="M535 430 c-4 -6 -10 -8 -15 -5 -5 3 -11 2 -14 -3 -2 -4 6 -8 18 -8
12 0 23 6 23 13 0 16 -4 16 -12 3z"/>
<path d="M2913 425 c0 -8 4 -12 9 -9 5 3 6 10 3 15 -9 13 -12 11 -12 -6z"/>
<path d="M708 423 c7 -3 16 -2 19 1 4 3 -2 6 -13 5 -11 0 -14 -3 -6 -6z"/>
<path d="M2850 420 c0 -5 5 -10 10 -10 6 0 10 5 10 10 0 6 -4 10 -10 10 -5 0
-10 -4 -10 -10z"/>
<path d="M2963 418 c-11 -19 -13 -39 -1 -32 5 3 7 9 4 12 -3 3 -1 11 5 19 6 7
9 13 6 13 -3 0 -9 -6 -14 -12z"/>
<path d="M595 401 c6 -11 4 -13 -10 -7 -18 6 -18 6 -2 -12 9 -10 14 -22 10
-25 -3 -4 -1 -7 5 -7 12 0 10 46 -3 58 -4 4 -4 1 0 -7z"/>
<path d="M634 392 c4 -7 1 -12 -6 -12 -7 -1 -4 -6 7 -13 11 -7 22 -21 23 -31
3 -17 1 -18 -11 -8 -12 10 -16 10 -20 -1 -3 -9 2 -13 16 -12 25 2 33 43 11 52
-8 3 -12 9 -9 13 3 5 0 12 -6 16 -8 4 -9 3 -5 -4z"/>
<path d="M2810 393 c0 -5 7 -16 14 -26 14 -18 15 -17 21 3 4 12 4 24 1 27 -3
4 -6 -1 -6 -11 0 -9 -5 -14 -10 -11 -6 4 -8 11 -5 16 4 5 1 9 -4 9 -6 0 -11
-3 -11 -7z"/>
<path d="M2870 390 c0 -5 5 -10 10 -10 6 0 10 5 10 10 0 6 -4 10 -10 10 -5 0
-10 -4 -10 -10z"/>
<path d="M2919 375 c-1 -3 -2 -13 -3 -22 -1 -10 -4 -23 -8 -29 -4 -6 -2 -11 5
-11 8 0 13 14 13 34 0 29 -4 43 -7 28z"/>
<path d="M2849 349 c-12 -24 3 -50 16 -28 6 8 4 10 -5 4 -10 -6 -12 -4 -7 9 4
10 7 20 7 22 0 3 5 2 12 -2 7 -4 8 -3 4 4 -10 16 -14 15 -27 -9z"/>
<path d="M681 344 c0 -11 3 -14 6 -6 3 7 2 16 -1 19 -3 4 -6 -2 -5 -13z"/>
<path d="M496 342 c-2 -4 -1 -14 4 -22 7 -11 9 -9 7 8 -1 24 -3 26 -11 14z"/>
<path d="M700 325 c-6 -8 -10 -22 -7 -32 4 -14 5 -13 6 5 1 13 5 20 11 17 6
-4 8 -16 4 -27 -4 -14 -2 -18 5 -14 14 9 14 46 0 46 -5 0 -7 5 -4 10 9 15 -1
12 -15 -5z"/>
<path d="M865 331 c-7 -12 34 -56 52 -56 19 0 75 -50 66 -59 -3 -2 -12 -2 -21
1 -15 4 -15 3 -2 -6 10 -7 11 -11 3 -11 -7 0 -13 -5 -13 -12 0 -6 9 -3 20 7
21 19 28 7 8 -13 -9 -9 -9 -12 1 -12 7 0 10 -4 7 -8 -3 -5 2 -9 10 -9 10 0 11
4 4 11 -15 15 -12 30 4 17 8 -6 18 -10 22 -9 12 4 51 -24 52 -37 0 -5 6 -11
14 -13 9 -2 8 0 -2 7 -8 6 -10 11 -5 11 6 0 2 6 -7 13 -10 8 -13 18 -9 26 7
10 9 9 14 -2 3 -8 20 -22 37 -31 25 -12 29 -12 20 -1 -9 11 -8 14 9 12 11 -1
22 -6 25 -13 7 -20 52 -13 66 10 7 11 9 18 5 14 -13 -12 -34 12 -28 30 5 16 4
16 -12 0 -14 -13 -16 -20 -7 -31 12 -14 7 -27 -10 -27 -5 0 -6 4 -3 10 8 13
-10 46 -29 53 -8 3 -17 0 -20 -8 -3 -9 1 -12 15 -10 20 4 26 -9 9 -20 -5 -3
-10 -1 -10 5 0 6 -4 9 -8 6 -4 -2 -14 -1 -22 5 -11 6 -12 9 -2 9 7 0 10 5 6
11 -5 8 -9 8 -14 -1 -6 -9 -13 -5 -25 14 -10 15 -24 25 -31 22 -14 -5 -37 17
-27 27 3 4 2 7 -4 7 -6 0 -16 -7 -23 -15 -10 -12 -16 -13 -26 -4 -8 6 -11 16
-7 22 3 6 1 7 -5 3 -8 -5 -11 1 -9 16 2 20 -2 23 -31 22 -22 -1 -32 3 -29 11
5 12 -21 17 -28 6z m54 -35 c11 -14 6 -15 -27 -7 -4 1 8 21 12 21 2 0 9 -6 15
-14z m111 -72 c0 -13 18 -16 30 -4 3 3 19 -10 37 -27 17 -18 27 -33 23 -33 -5
0 -18 10 -29 22 -18 19 -21 19 -27 5 -3 -10 -11 -14 -18 -10 -6 4 -18 8 -26 8
-8 0 -14 6 -12 13 1 6 -2 12 -6 12 -5 0 -9 7 -9 16 0 14 2 14 15 -2 13 -18 14
-18 7 5 -5 16 -4 21 4 17 6 -4 11 -14 11 -22z m189 -58 c9 -11 9 -16 -1 -22
-7 -4 -10 -4 -6 1 4 4 3 14 -3 22 -6 7 -9 13 -6 13 2 0 10 -6 16 -14z"/>
<path d="M1015 200 c-3 -5 -1 -10 4 -10 6 0 11 5 11 10 0 6 -2 10 -4 10 -3 0
-8 -4 -11 -10z"/>
<path d="M1046 198 c3 -5 10 -6 15 -3 13 9 11 12 -6 12 -8 0 -12 -4 -9 -9z"/>
<path d="M536 318 c3 -5 10 -6 15 -3 13 9 11 12 -6 12 -8 0 -12 -4 -9 -9z"/>
<path d="M2877 313 c-10 -9 -9 -23 1 -23 5 0 9 7 9 15 0 17 -1 18 -10 8z"/>
<path d="M593 295 c0 -8 4 -12 9 -9 4 3 8 9 8 15 0 5 -4 9 -8 9 -5 0 -9 -7 -9
-15z"/>
<path d="M3039 293 c-13 -16 -12 -17 4 -4 16 13 21 21 13 21 -2 0 -10 -8 -17
-17z"/>
<path d="M2815 280 c-3 -6 1 -7 10 -4 11 5 14 2 9 -12 -5 -15 -4 -16 4 -4 11
15 7 30 -8 30 -5 0 -12 -4 -15 -10z"/>
<path d="M661 264 c0 -11 3 -14 6 -6 3 7 2 16 -1 19 -3 4 -6 -2 -5 -13z"/>
<path d="M2756 265 c-3 -8 -1 -15 4 -15 6 0 10 7 10 15 0 8 -2 15 -4 15 -2 0
-6 -7 -10 -15z"/>
<path d="M690 260 c0 -5 5 -10 11 -10 5 0 7 5 4 10 -3 6 -8 10 -11 10 -2 0 -4
-4 -4 -10z"/>
<path d="M725 260 c-3 -6 1 -7 9 -4 18 7 21 14 7 14 -6 0 -13 -4 -16 -10z"/>
<path d="M626 242 c-3 -5 1 -9 9 -9 8 0 12 4 9 9 -3 4 -7 8 -9 8 -2 0 -6 -4
-9 -8z"/>
<path d="M740 246 c0 -2 9 -6 20 -9 11 -3 18 -1 14 4 -5 9 -34 13 -34 5z"/>
<path d="M2736 237 c3 -10 9 -15 12 -12 3 3 0 11 -7 18 -10 9 -11 8 -5 -6z"/>
<path d="M841 223 c-1 -25 14 -39 25 -22 4 7 3 9 -4 5 -6 -3 -12 3 -15 16 -4
23 -4 23 -6 1z"/>
<path d="M790 220 c0 -5 5 -10 10 -10 6 0 10 5 10 10 0 6 -4 10 -10 10 -5 0
-10 -4 -10 -10z"/>
<path d="M815 200 c-3 -5 -1 -10 4 -10 6 0 11 5 11 10 0 6 -2 10 -4 10 -3 0
-8 -4 -11 -10z"/>
<path d="M2670 201 c0 -6 4 -13 10 -16 6 -3 7 1 4 9 -7 18 -14 21 -14 7z"/>
<path d="M910 185 c0 -8 4 -15 10 -15 5 0 7 7 4 15 -4 8 -8 15 -10 15 -2 0 -4
-7 -4 -15z"/>
<path d="M2309 183 c0 -5 -2 -18 -5 -30 -2 -13 1 -23 7 -23 5 0 8 4 5 9 -3 5
1 11 9 15 8 3 12 12 9 21 -6 15 -23 21 -25 8z"/>
<path d="M2565 180 c-3 -6 1 -7 9 -4 18 7 21 14 7 14 -6 0 -13 -4 -16 -10z"/>
<path d="M2633 170 c1 -21 10 -18 13 5 1 8 -2 15 -6 15 -5 0 -8 -9 -7 -20z"/>
<path d="M876 158 c3 -5 10 -6 15 -3 13 9 11 12 -6 12 -8 0 -12 -4 -9 -9z"/>
<path d="M935 160 c-3 -5 -1 -10 4 -10 6 0 11 5 11 10 0 6 -2 10 -4 10 -3 0
-8 -4 -11 -10z"/>
<path d="M2273 150 c-1 -11 2 -20 5 -20 4 0 8 9 9 20 1 11 -2 20 -5 20 -4 0
-8 -9 -9 -20z"/>
<path d="M2476 155 c-3 -9 -6 -22 -5 -28 0 -7 5 -1 10 12 5 13 8 26 5 28 -2 2
-6 -3 -10 -12z"/>
<path d="M2586 158 c3 -4 9 -8 15 -8 5 0 9 4 9 8 0 5 -7 9 -15 9 -8 0 -12 -4
-9 -9z"/>
<path d="M1020 156 c0 -2 7 -7 16 -10 8 -3 12 -2 9 4 -6 10 -25 14 -25 6z"/>
<path d="M2510 150 c-8 -5 -12 -12 -9 -15 4 -3 12 1 19 10 14 17 11 19 -10 5z"/>
<path d="M1354 138 c-4 -6 -1 -14 6 -18 10 -6 9 -9 -1 -13 -12 -4 -12 -7 0
-18 8 -8 11 -9 8 -3 -4 6 2 19 13 29 20 18 20 18 17 -1 -1 -10 -6 -25 -10 -31
-6 -9 -3 -11 7 -7 16 6 20 17 16 43 -1 12 1 13 13 2 11 -8 17 -9 22 -1 3 6 11
7 17 4 7 -4 7 -9 0 -13 -7 -4 -8 -12 -2 -21 8 -13 10 -12 10 3 0 9 5 17 11 17
5 0 7 -6 3 -12 -6 -10 -4 -10 7 -2 19 14 38 12 49 -6 7 -11 10 -11 10 -2 0 8
5 10 13 6 9 -6 9 -4 -1 8 -7 9 -9 18 -5 20 4 3 3 3 -4 2 -7 -2 -15 1 -18 6 -6
10 -24 8 -44 -4 -9 -6 -18 -3 -28 9 -7 11 -13 13 -13 7 0 -14 -21 -12 -32 3
-5 6 -8 5 -8 -3 0 -8 -5 -10 -12 -5 -20 12 -37 12 -44 1z m36 -4 c0 -8 -19
-13 -24 -6 -3 5 1 9 9 9 8 0 15 -2 15 -3z m153 -24 c10 -12 9 -12 -3 -3 -8 6
-23 9 -33 8 -9 -2 -15 0 -12 5 7 12 33 6 48 -10z"/>
<path d="M2025 129 c-6 -18 -9 -19 -23 -5 -13 11 -20 12 -33 3 -15 -11 -15
-14 -1 -27 14 -13 15 -12 9 3 -3 9 -2 19 3 22 4 3 10 0 12 -6 2 -6 18 -12 35
-13 27 -2 30 1 23 15 -5 9 -6 19 -3 23 3 3 1 6 -5 6 -6 0 -14 -9 -17 -21z"/>
<path d="M1316 114 c-11 -7 -18 -16 -15 -18 2 -2 13 2 23 10 11 7 18 16 15 18
-2 2 -13 -2 -23 -10z"/>
<path d="M1135 109 c-4 -6 -5 -12 -2 -15 2 -3 7 2 10 11 7 17 1 20 -8 4z"/>
<path d="M1228 113 c7 -3 16 -2 19 1 4 3 -2 6 -13 5 -11 0 -14 -3 -6 -6z"/>
<path d="M1257 105 c-4 -8 -3 -16 1 -19 4 -3 9 4 9 15 2 23 -3 25 -10 4z"/>
<path d="M2126 105 c-11 -8 -15 -15 -9 -15 7 0 15 5 18 10 4 6 16 8 28 5 17
-5 19 -4 7 4 -19 14 -21 13 -44 -4z"/>
<path d="M1066 102 c-3 -5 1 -9 9 -9 8 0 12 4 9 9 -3 4 -7 8 -9 8 -2 0 -6 -4
-9 -8z"/>
<path d="M1827 104 c-4 -4 -7 -12 -7 -18 0 -6 5 -4 10 4 9 13 11 13 21 0 9
-12 10 -12 7 -1 -5 17 -21 25 -31 15z"/>
<path d="M1427 86 c-4 -10 -1 -13 8 -9 8 3 12 9 9 14 -7 12 -11 11 -17 -5z"/>
<path d="M1990 92 c0 -6 9 -12 20 -15 11 -3 20 -3 20 -1 0 2 -9 8 -20 14 -11
6 -20 7 -20 2z"/>
<path d="M1496 82 c-2 -4 -1 -14 4 -22 7 -11 9 -9 7 8 -1 24 -3 26 -11 14z"/>
<path d="M1575 81 c-6 -11 13 -26 22 -17 4 3 1 6 -6 6 -7 0 -9 5 -6 10 3 6 4
10 1 10 -3 0 -7 -4 -11 -9z"/>
<path d="M2050 80 c0 -5 5 -10 11 -10 5 0 7 5 4 10 -3 6 -8 10 -11 10 -2 0 -4
-4 -4 -10z"/>
<path d="M2146 78 c3 -5 10 -6 15 -3 13 9 11 12 -6 12 -8 0 -12 -4 -9 -9z"/>
<path d="M1450 60 c0 -5 5 -10 11 -10 5 0 7 5 4 10 -3 6 -8 10 -11 10 -2 0 -4
-4 -4 -10z"/>
</g>
</svg>
